<svg width="129" height="65" viewBox="0 0 129 65" fill="none" xmlns="http://www.w3.org/2000/svg">
  <path d="M55.1787 0V37.6316L77.0202 34.964L73.1715 0H55.1787Z" fill="#00B2BB" />
  <path d="M55.1787 42.6452L76.8666 39.9121L78.1698 51.3156L55.1787 47.9228V42.6452Z" fill="#91B950" />
  <path d="M55.1787 52.457L83.4541 57.0957L85.0671 63.8605H55.1787V52.457Z" fill="#A77800" />
  <path
    d="M0.158491 44.4737C0.158491 44.4737 -3.47713 18.992 24.0771 16.9878C28.0954 16.7015 30.9656 17.0832 30.9656 17.0832V0H49.4308V38.3657L30.87 40.6562L30.9656 28.7266C30.9656 28.7266 27.9041 28.0585 24.6511 29.0129C20.6328 30.2536 18.6236 34.1665 19.0063 42.0878L0.158491 44.4737Z"
    fill="#29802A"
  />
  <path
    d="M0 49.4521L19.4227 47.024C19.4227 47.024 20.6852 51.5889 24.9582 51.4918C28.4543 51.3946 30.5908 50.2291 30.5908 50.2291V45.6643L49.4308 43.3333V63.9236H33.9897L33.0186 60.5243C33.0186 60.5243 26.2207 64.7978 19.0343 64.992C11.8479 65.1863 2.81629 61.884 0 49.4521Z"
    fill="#29802A"
  />
  <path d="M84.1848 34.2105L79.3195 17.1053L99.067 17.1972L102.311 32.0954L84.1848 34.2105Z" fill="#29802A" />
  <path
    d="M85.0671 39.3586L102.896 37.1659L104.994 47.6527C104.994 47.6527 107.091 40.3119 107.568 36.4985L125.302 34.2105C125.302 34.2105 122.06 48.7967 115.291 63.8596H91.9318L85.0671 39.3586Z"
    fill="#29802A"
  />
  <path
    d="M128.75 17.1053H108.936C109.229 24.9927 108.058 31.9298 108.058 31.9298L126.505 29.6491C127.481 26.3231 128.75 17.1053 128.75 17.1053Z"
    fill="#29802A"
  />
</svg>
