<svg xmlns="http://www.w3.org/2000/svg" width="236" height="69"><path d="M47.4 64.4V45.7h2.9v18.7h-2.9zm-3.5-8.8v8.8h1.5v-9c0-1.5-.6-2.7-1.8-3.6-1.1-.8-2.5-1.2-4.3-1.2-2.4 0-4.2.7-5.3 2.2V51h-1.5v13.5H34v-7.6c0-1.5.5-2.7 1.4-3.6 1-.9 2.3-1.4 3.9-1.4 1.4 0 2.5.3 3.3.9.9.7 1.3 1.6 1.3 2.8zm-15.7 8.8V62c-1.3 1.8-3.3 2.7-6 2.7-2.3 0-4.1-.7-5.4-2-1.2-1.3-1.9-2.9-1.9-5 0-2 .6-3.8 1.9-5 1.3-1.4 3.2-2 5.5-2 2.7 0 4.6.9 5.9 2.6v-2.6h1.5v13.8h-1.5zm-1.6-10.9c-1.1-1.1-2.6-1.6-4.5-1.6-1.8 0-3.3.6-4.3 1.7s-1.5 2.4-1.5 4.1c0 1.7.5 3 1.5 4.1 1 1.1 2.5 1.7 4.3 1.7 1.9 0 3.3-.5 4.4-1.6 1.1-1.1 1.6-2.4 1.6-4.1.1-1.9-.5-3.3-1.5-4.3zM8.4 64.4H7L0 50.9h1.8l5.9 11.7 5.5-11.7h1.7L8.4 64.4zm50.5.3c2.6 0 4.6-.7 6.1-2 1-.8 1.7-1.9 2-3 .3 1.2 1 2.2 2 3 1.5 1.3 3.5 2 6.1 2 2.6 0 4.6-.7 6.1-2s2.3-3 2.3-5.1-.8-3.8-2.3-5.1c-1.5-1.3-3.5-2-6.1-2-2.6 0-4.6.7-6.1 2-1 .9-1.7 1.9-2 3-.3-1.2-1-2.2-2-3-1.5-1.3-3.5-2-6.1-2-2.6 0-4.6.7-6.1 2s-2.3 3-2.3 5.1.8 3.8 2.3 5.1c1.5 1.3 3.5 2 6.1 2zm0-11.8c1.8 0 3.1.4 4.1 1.3 1 .9 1.4 2 1.4 3.4s-.5 2.5-1.5 3.4c-1 .9-2.3 1.3-4.1 1.3-1.7 0-3.1-.4-4-1.3-1-.9-1.5-2-1.5-3.4s.5-2.6 1.4-3.4c1.1-.8 2.4-1.3 4.2-1.3zm20.3 1.3c-1-.9-2.3-1.3-4.1-1.3-1.8 0-3.1.4-4.1 1.3-1 .9-1.4 2-1.4 3.4s.5 2.5 1.5 3.4c1 .9 2.3 1.3 4 1.3 1.7 0 3.1-.4 4.1-1.3 1-.9 1.5-2 1.5-3.4s-.6-2.5-1.5-3.4zm10.2 10.2h2.2l7.1-13.5h-3.1l-5.1 9.8-5.5-9.8h-3.3l7.7 13.5zm10.3-5.7c.3 2.4 2.1 3.6 5.2 3.6 2.6 0 4.3-1 5.2-3h2.9c-.8 2.2-2 3.7-3.5 4.4-1.3.6-2.9.9-4.7.9-2.6 0-4.7-.7-6.1-2-1.3-1.2-2-2.9-2-5s.7-3.7 2.2-5.1c1.5-1.3 3.5-2 6-2s4.4.6 5.9 1.8c1.5 1.2 2.3 2.8 2.3 4.8v1.5l-13.4.1zm9.1-4.6c-.9-.8-2.2-1.2-3.8-1.2s-2.9.4-3.8 1.2c-.7.6-1.2 1.3-1.4 2.2h10.3c-.2-.8-.6-1.6-1.3-2.2zm7.4 4.7c0-1.7.4-3.1 1.2-4.1.9-1.2 2.6-1.8 5.1-1.8v-2.3c-2.8 0-4.9.5-6.3 1.5v-1.2h-2.8v13.5h2.8v-5.6zm8.5-.1c.3 2.4 2.1 3.6 5.2 3.6 2.6 0 4.3-1 5.2-3h2.9c-.8 2.2-2 3.7-3.5 4.4-1.3.6-2.9.9-4.7.9-2.6 0-4.7-.7-6.1-2-1.3-1.2-2-2.9-2-5s.7-3.7 2.2-5.1c1.5-1.3 3.5-2 6-2s4.4.6 5.9 1.8c1.5 1.2 2.3 2.8 2.3 4.8v1.5l-13.4.1zm9.1-4.6c-.9-.8-2.2-1.2-3.8-1.2-1.6 0-2.9.4-3.8 1.2-.7.6-1.2 1.3-1.4 2.2h10.3c-.1-.8-.6-1.6-1.3-2.2zm16.1 1.6v8.6h2.8v-8.9c0-1.6-.7-2.9-2.1-3.7-1.2-.8-2.8-1.2-4.7-1.2-1.9 0-3.4.4-4.7 1.2v-.9h-2.9v13.5h2.9v-7.5c0-1.2.4-2.1 1.2-2.9.8-.7 2-1.1 3.5-1.1 2.6.1 4 1.1 4 2.9z" fill-rule="evenodd" clip-rule="evenodd"/><path d="M71.6 0h20.8l8 12.9 8-12.8h20.9l-28.9 46.3L71.6 0zm4 2.2l24.8 40 24.9-39.9h-15.6l-9.4 15L91 2.2H75.6zm138.1 62.2l-9.1-8.3 9.4-5.7-5-.1-9.3 5.8V45.7h-2.8v18.7h2.8v-5.3l2.6-1.6 7.5 6.8h3.9zm-51.6.7c2.6 0 4.6-.7 6-2.1 1-1 1.7-2.3 1.9-3.7.3 1.3.9 2.4 1.9 3.4 1.5 1.4 3.4 2.1 5.9 2.1 2.2 0 4-.5 5.4-1.5v1.3h2.9v-14h-2.9V52c-1.4-1-3.2-1.5-5.3-1.5-2.5 0-4.5.7-6 2.1-1 1-1.7 2.2-2 3.6-.3-1.4-.9-2.6-1.9-3.6-1.5-1.4-3.5-2.1-6-2.1-2.1 0-3.8.5-5.2 1.5v-1.2H154V69h2.8v-5.4c1.4 1 3.2 1.5 5.3 1.5zm.1-12.1c1.6 0 2.9.5 3.8 1.3.9.9 1.3 2 1.3 3.5s-.4 2.6-1.3 3.5c-.9.9-2.2 1.4-3.8 1.4-3.6 0-5.3-1.6-5.3-4.9 0-1.4.5-2.6 1.4-3.5.9-.9 2.3-1.3 3.9-1.3zm15.6-.1c1.8 0 3.1.4 4 1.3.9.8 1.4 2 1.4 3.5 0 1.3-.5 2.5-1.5 3.3-1 .9-2.3 1.3-3.9 1.3s-2.9-.4-3.8-1.3c-.9-.8-1.3-1.9-1.3-3.3s.4-2.5 1.3-3.4c.9-.9 2.2-1.4 3.8-1.4zm13.7 1.8c-.8 1-1.2 2.4-1.2 4.1v5.5h-2.9V50.9h2.9v1.2c1.4-1 3.5-1.5 6.3-1.5v2.3c-2.5 0-4.2.6-5.1 1.8zm23.2 4c.3 2.4 2.1 3.6 5.2 3.6 2.6 0 4.3-1 5.2-3h2.9c-.8 2.2-2 3.7-3.5 4.4-1.3.6-2.9.9-4.7.9-2.6 0-4.7-.7-6.1-2-1.3-1.2-2-2.9-2-5s.7-3.7 2.2-5.1c1.5-1.3 3.5-2 6-2s4.4.6 5.9 1.8c1.5 1.2 2.3 2.8 2.3 4.8v1.5l-13.4.1zm9.1-4.6c-.9-.8-2.2-1.2-3.8-1.2-1.6 0-2.9.4-3.8 1.2-.7.6-1.2 1.3-1.4 2.2h10.3c-.2-.8-.6-1.6-1.3-2.2zm9.2 10.3V53.6h3v-2.4h-3v-3.7h-2.8v3.7h-3v2.4h3l.1 10.8h2.7zm-91.3-47.2L131.3.5l-14.5 23.2-14.5 23.2 28.8.1h28.8l-10.4-16.8h-16l8.2-13zm-22.9 7.5l12.5-20 7.7 12.4-9.4 15h18.7l7.8 12.5h-49.6l12.3-19.9z" fill-rule="evenodd" clip-rule="evenodd" fill="#967743"/></svg>