<svg xmlns="http://www.w3.org/2000/svg" xmlns:xlink="http://www.w3.org/1999/xlink" width="308.35" height="61" viewBox="0 0 308.35 61"><defs><style>.a{fill:#28373d;}.b{fill:#508330;}.c{fill:#fff;}.d{fill:url(#a);}.e{fill:url(#b);}</style><radialGradient id="a" cx="-0.421" cy="0.411" r="0.944" gradientTransform="translate(-0.156) scale(1.313 1)" gradientUnits="objectBoundingBox"><stop offset="0" stop-color="#91b62c"/><stop offset="1" stop-color="#4f8330"/></radialGradient><radialGradient id="b" cx="-2.413" cy="0.44" r="6.172" gradientTransform="translate(0.075) scale(0.85 1)" xlink:href="#a"/></defs><g transform="translate(-147.521 -240.878)"><g transform="translate(262.842 255.645)"><path class="a" d="M371.722,269.588h21a8.754,8.754,0,0,1,1.2.081,8.554,8.554,0,0,1,1.156.243,5.646,5.646,0,0,1,2.6,1.581,5.96,5.96,0,0,1,1.3,2.393,10.188,10.188,0,0,1,.263,1.237,9.37,9.37,0,0,1,.1,1.4v15.084a12,12,0,0,1-.081,1.439,8.071,8.071,0,0,1-.243,1.237,6.823,6.823,0,0,1-.507,1.318,4.773,4.773,0,0,1-.709,1.034,4.681,4.681,0,0,1-.892.832,5.735,5.735,0,0,1-1.054.588,5.958,5.958,0,0,1-1.5.446,9.854,9.854,0,0,1-1.541.121H371.722Zm10.259,4.785v19.545h5.92a.78.78,0,0,0,.466-.163,1.583,1.583,0,0,0,.385-.405,1.692,1.692,0,0,0,.263-.487,1.575,1.575,0,0,0,.1-.527V275.508A.786.786,0,0,0,389,275.1a1.379,1.379,0,0,0-.325-.365,1.258,1.258,0,0,0-.405-.263,1.177,1.177,0,0,0-.446-.1Z" transform="translate(-371.722 -269.588)"/><path class="a" d="M432.346,269.588h22.423v4.7H442.6v6.974h11.841v4.745H442.6v7.907h12.449v4.7H432.346Z" transform="translate(-401.163 -269.588)"/><path class="a" d="M524.108,269.588h10.259v24.33H546.41v4.7h-22.3Z" transform="translate(-445.726 -269.588)"/><path class="a" d="M575.43,269.669l10.218-.081v29.074H575.43Z" transform="translate(-470.65 -269.588)"/><path class="a" d="M601.444,269.588H611.7v24.33h12.043v4.7h-22.3Z" transform="translate(-483.283 -269.588)"/><path class="a" d="M652.056,269.588h10.259v24.33h12.043v4.7h-22.3Z" transform="translate(-507.862 -269.588)"/><path class="a" d="M701.879,269.588H724.3v4.7H712.137v6.974h11.841v4.745H712.137v7.907h12.449v4.7H701.879Z" transform="translate(-532.058 -269.588)"/></g><rect class="b" width="193.127" height="8.226" transform="translate(262.744 289.189)"/><g transform="translate(424.88 290.772)"><path class="c" d="M691.5,337.893v.847h-2.62a.288.288,0,0,0-.106.022.354.354,0,0,0-.1.059.311.311,0,0,0-.08.08.167.167,0,0,0-.029.095v2.985a.226.226,0,0,0,.026.1.362.362,0,0,0,.069.1.625.625,0,0,0,.095.066.2.2,0,0,0,.1.029h.759a.22.22,0,0,0,.1-.026.321.321,0,0,0,.087-.062.27.27,0,0,0,.069-.088A.212.212,0,0,0,689.9,342v-1.153h-.97v-.839h2.81v3.109h-3.905a1.124,1.124,0,0,1-.266-.029,1.047,1.047,0,0,1-.223-.08.905.905,0,0,1-.208-.142,1.06,1.06,0,0,1-.157-.179,1.156,1.156,0,0,1-.1-.179,1.745,1.745,0,0,1-.07-.186c-.019-.083-.035-.165-.047-.248a1.619,1.619,0,0,1-.019-.241v-2.606a1.911,1.911,0,0,1,.019-.27,1.515,1.515,0,0,1,.055-.248,1.133,1.133,0,0,1,.08-.223,1.23,1.23,0,0,1,.109-.186.814.814,0,0,1,.15-.175,1.266,1.266,0,0,1,.178-.131.846.846,0,0,1,.2-.077.914.914,0,0,1,.215-.025Z" transform="translate(-686.748 -337.886)"/><path class="c" d="M697.731,337.907h3.934a1.519,1.519,0,0,1,.5.073.835.835,0,0,1,.343.226.706.706,0,0,1,.113.171,1.121,1.121,0,0,1,.077.216,1.785,1.785,0,0,1,.044.416v1.073c0,.053,0,.105,0,.156a1.216,1.216,0,0,1-.018.157.7.7,0,0,1-.047.146.549.549,0,0,1-.084.132.4.4,0,0,1-.092.08.464.464,0,0,1-.128.059.662.662,0,0,1-.161.039,1.7,1.7,0,0,1-.2.011l1.044,2.263h-2.029l-.868-2.255h-.584v2.255h-1.832Zm1.847.861V340h1.146a.181.181,0,0,0,.091-.018.139.139,0,0,0,.054-.055.161.161,0,0,0,.029-.073.7.7,0,0,0,.007-.11v-.795a.234.234,0,0,0-.014-.088.143.143,0,0,0-.044-.059.161.161,0,0,0-.069-.029.407.407,0,0,0-.077-.008Z" transform="translate(-692.082 -337.893)"/><path class="c" d="M710.427,337.879h2.854a1.549,1.549,0,0,1,.259.022.929.929,0,0,1,.238.073.9.9,0,0,1,.219.12.819.819,0,0,1,.182.193,1.244,1.244,0,0,1,.131.238,1.621,1.621,0,0,1,.1.3,2.488,2.488,0,0,1,.033.251c.007.09.011.186.011.288v2.248a3,3,0,0,1-.015.314,2.288,2.288,0,0,1-.043.277,1.441,1.441,0,0,1-.087.288,1.348,1.348,0,0,1-.132.237,1.01,1.01,0,0,1-.284.256.97.97,0,0,1-.234.087,1.148,1.148,0,0,1-.27.029h-3.065a.981.981,0,0,1-.23-.026,1.106,1.106,0,0,1-.2-.069.888.888,0,0,1-.211-.147,1.08,1.08,0,0,1-.168-.2,1.8,1.8,0,0,1-.106-.2,1.307,1.307,0,0,1-.076-.223,1.726,1.726,0,0,1-.044-.219,1.606,1.606,0,0,1-.014-.212v-2.583a2.2,2.2,0,0,1,.018-.3,2.1,2.1,0,0,1,.047-.256,1.288,1.288,0,0,1,.091-.241,1.018,1.018,0,0,1,.12-.19.959.959,0,0,1,.16-.153,1.006,1.006,0,0,1,.183-.11,1.322,1.322,0,0,1,.262-.076A1.539,1.539,0,0,1,710.427,337.879Zm.985.868a.3.3,0,0,0-.128.026.455.455,0,0,0-.1.062.335.335,0,0,0-.077.121.375.375,0,0,0-.026.135v2.9a.189.189,0,0,0,.029.1.339.339,0,0,0,.161.146.229.229,0,0,0,.1.026h.978a.188.188,0,0,0,.1-.03.352.352,0,0,0,.084-.073.267.267,0,0,0,.058-.087.251.251,0,0,0,.022-.1v-2.941a.255.255,0,0,0-.022-.1.235.235,0,0,0-.066-.087.333.333,0,0,0-.087-.062.213.213,0,0,0-.095-.026Z" transform="translate(-697.684 -337.879)"/><path class="c" d="M720.562,337.879h1.832v3.933a.413.413,0,0,0,.026.143.494.494,0,0,0,.069.128.421.421,0,0,0,.128.12.291.291,0,0,0,.156.047h1.737a.425.425,0,0,0,.154-.026.408.408,0,0,0,.11-.062.3.3,0,0,0,.084-.12.427.427,0,0,0,.025-.143v-4.021h.788v3.853c0,.078,0,.16-.011.245s-.018.169-.033.251a2.288,2.288,0,0,1-.073.245,1.1,1.1,0,0,1-.117.23.653.653,0,0,1-.132.16.784.784,0,0,1-.182.124.868.868,0,0,1-.259.1,1.573,1.573,0,0,1-.332.032h-2.773a1.484,1.484,0,0,1-.307-.029A1.061,1.061,0,0,1,721.2,343a.964.964,0,0,1-.2-.143,1.072,1.072,0,0,1-.156-.179,1.03,1.03,0,0,1-.131-.237,2.457,2.457,0,0,1-.088-.259,2.47,2.47,0,0,1-.058-.525Z" transform="translate(-703.169 -337.879)"/><path class="c" d="M731.813,337.907h3.868a1.609,1.609,0,0,1,.212.015,1.358,1.358,0,0,1,.211.044,1.312,1.312,0,0,1,.2.091,1,1,0,0,1,.179.128,1.34,1.34,0,0,1,.109.142.916.916,0,0,1,.087.172,1.057,1.057,0,0,1,.055.208,1.561,1.561,0,0,1,.018.245v1.3a1.447,1.447,0,0,1-.018.233.9.9,0,0,1-.055.2.7.7,0,0,1-.08.164.868.868,0,0,1-.11.135.794.794,0,0,1-.142.113,1.169,1.169,0,0,1-.165.084,1.107,1.107,0,0,1-.226.062,1.559,1.559,0,0,1-.233.018h-2.094v1.861h-1.818Zm1.818.861V340.4h1.08a.135.135,0,0,0,.084-.029.276.276,0,0,0,.069-.073.323.323,0,0,0,.044-.1.331.331,0,0,0,.014-.095v-1.08a.293.293,0,0,0-.018-.106.21.21,0,0,0-.047-.076.189.189,0,0,0-.07-.055.191.191,0,0,0-.077-.018Z" transform="translate(-708.633 -337.893)"/></g><g transform="translate(147.521 240.878)"><path class="d" d="M279.12,240.878H264.289l.742,4.919q1.335.964,2.6,2.066c6.714,5.871,10.118,13.782,10.118,23.515,0,7.423-2.014,13.8-5.983,19.028l1.73,11.462,37.264-4.452V289.19H288.748Z" transform="translate(-204.228 -240.878)"/><path class="e" d="M209.755,249.2c-.345-.3-.7-.593-1.05-.878q-9.211-7.437-22.135-7.44H147.521l14.246,12.716h23.082a21.126,21.126,0,0,1,13.959,4.685q5.639,4.686,5.641,13.1,0,8.606-5.594,13.195t-14.007,4.589h-12.06v12.716H186.57q13.671,0,23.185-8.366a28.013,28.013,0,0,0,4.921-5.618,29.311,29.311,0,0,0,4.592-16.516Q219.269,257.516,209.755,249.2Z" transform="translate(-147.521 -240.878)"/></g></g></svg>